<?xml version="1.0" encoding="UTF-8" standalone="no"?>
<!DOCTYPE svg PUBLIC "-//W3C//DTD SVG 20010904//EN"
"http://www.w3.org/TR/2001/REC-SVG-20010904/DTD/svg10.dtd">
<!-- Created with Inkscape (http://www.inkscape.org/) -->
<svg
   id="svg908"
   sodipodi:version="0.32"
   inkscape:version="0.39"
   width="22.000000cm"
   height="14.000000cm"
   sodipodi:docbase="/home/twiki/DEVELOP/pub/TWiki/TWikiLogos"
   sodipodi:docname="horzTWikiPowered.svg"
   inkscape:export-filename="/home/crawford/logos/poweredby_pens.png"
   inkscape:export-xdpi="72.000000"
   inkscape:export-ydpi="72.000000"
   xmlns="http://www.w3.org/2000/svg"
   xmlns:cc="http://web.resource.org/cc/"
   xmlns:inkscape="http://www.inkscape.org/namespaces/inkscape"
   xmlns:sodipodi="http://sodipodi.sourceforge.net/DTD/sodipodi-0.dtd"
   xmlns:rdf="http://www.w3.org/1999/02/22-rdf-syntax-ns#"
   xmlns:xml="http://www.w3.org/XML/1998/namespace"
   xmlns:dc="http://purl.org/dc/elements/1.1/"
   xmlns:xlink="http://www.w3.org/1999/xlink">
  <defs
     id="defs910" />
  <sodipodi:namedview
     id="base"
     pagecolor="#ffffff"
     bordercolor="#666666"
     borderopacity="1.0"
     inkscape:pageopacity="0.0"
     inkscape:pageshadow="2"
     inkscape:zoom="1.3592616"
     inkscape:cx="318.65134"
     inkscape:cy="148.08383"
     inkscape:window-width="1272"
     inkscape:window-height="951"
     inkscape:grid-points="true"
     showgrid="true"
     inkscape:window-x="0"
     inkscape:window-y="0"
     gridtolerance="1.0000000mm"
     gridspacingy="1.0000000mm"
     gridspacingx="1.0000000mm" />
  <metadata
     id="metadata911">
    <rdf:RDF
       id="RDF912">
      <cc:Work
         rdf:about=""
         id="Work913">
        <dc:format
           id="format914">image/svg+xml</dc:format>
        <dc:type
           id="type916"
           rdf:resource="http://purl.org/dc/dcmitype/StillImage" />
      </cc:Work>
    </rdf:RDF>
  </metadata>
  <text
     xml:space="preserve"
     style="font-size:48.000000;font-style:italic;font-variant:normal;font-weight:bold;font-stretch:normal;fill:#000000;fill-opacity:1.0000000;stroke:none;stroke-width:1.0000000pt;stroke-linecap:butt;stroke-linejoin:miter;stroke-opacity:1.0000000;font-family:Sans;text-anchor:start;writing-mode:lr;"
     x="206.92570"
     y="66.289841"
     id="text1645"
     sodipodi:linespacing="100%"><tspan
       id="tspan1646">POWERED BY</tspan></text>
  <path
     style="fill:#d21f08;fill-opacity:1.0000000;fill-rule:evenodd;stroke:none;stroke-width:1.0000000pt;stroke-linecap:butt;stroke-linejoin:miter;stroke-opacity:1.0000000;"
     d="M 159.71832,83.456133 C 172.98569,86.972683 187.79150,95.106763 195.75194,114.44776 C 182.48457,114.44776 167.67875,114.44776 159.71832,114.44776 L 159.71832,83.456133 z "
     id="path1648"
     sodipodi:nodetypes="cccc" />
  <path
     style="fill:#d21f08;fill-opacity:1.0000000;fill-rule:evenodd;stroke:none;stroke-width:1.0000000pt;stroke-linecap:butt;stroke-linejoin:miter;stroke-opacity:1.0000000;"
     d="M 159.71832,80.638714 C 219.77434,92.625343 224.09313,192.88893 228.78277,232.77946 L 243.79679,232.77946 L 243.79679,120.08260 C 234.78837,115.28795 234.78837,102.33789 243.79679,97.543233 L 243.79679,80.638714 L 159.71832,80.638714 z "
     id="path1649"
     sodipodi:nodetypes="ccccccc" />
  <path
     style="fill:#d21f08;fill-opacity:1.0000000;fill-rule:evenodd;stroke:none;stroke-width:1.0000000pt;stroke-linecap:butt;stroke-linejoin:miter;stroke-opacity:1.0000000;"
     d="M 336.88367,83.456143 C 323.61630,86.972693 308.81046,95.106773 300.85005,114.44777 C 314.11741,114.44777 328.92325,114.44777 336.88367,114.44777 L 336.88367,83.456143 z "
     id="path1650"
     sodipodi:nodetypes="cccc" />
  <path
     style="fill:#d21f08;fill-opacity:1.0000000;fill-rule:evenodd;stroke:none;stroke-width:1.0000000pt;stroke-linecap:butt;stroke-linejoin:miter;stroke-opacity:1.0000000;"
     d="M 336.88367,80.638724 C 276.82764,92.625353 272.50886,192.88893 267.81922,232.77947 L 252.80519,232.77947 L 252.80519,120.08261 C 261.81361,115.28796 261.81361,102.33790 252.80519,97.543253 L 252.80519,80.638724 L 336.88367,80.638724 z "
     id="path1651"
     sodipodi:nodetypes="ccccccc" />
  <text
     xml:space="preserve"
     style="font-size:72.000000;font-style:normal;font-variant:normal;font-weight:bold;font-stretch:normal;fill:#d21f08;fill-opacity:1.0000000;stroke:none;stroke-width:1.0000000pt;stroke-linecap:butt;stroke-linejoin:miter;stroke-opacity:1.0000000;font-family:Sans;text-anchor:start;writing-mode:lr;"
     x="169.98949"
     y="111.77413"
     id="text1652"
     sodipodi:linespacing="100%"
     transform="scale(1.752954,2.054725)"><tspan
       id="tspan1653">Wiki</tspan></text>
  <path
     style="fill:#ff2700;fill-opacity:1.0000000;fill-rule:evenodd;stroke:none;stroke-width:1.0000000pt;stroke-linecap:butt;stroke-linejoin:miter;stroke-opacity:1.0000000;"
     d="M 3.5623781,308.26772 C 19.308808,312.37438 36.881158,321.87345 46.329028,344.46009 C 30.582598,344.46009 13.010248,344.46009 3.5623781,344.46009 L 3.5623781,308.26772 z "
     id="path959"
     sodipodi:nodetypes="cccc" />
  <path
     style="fill:#ff8100;fill-opacity:1.0000000;fill-rule:evenodd;stroke:none;stroke-width:1.0000000pt;stroke-linecap:butt;stroke-linejoin:miter;stroke-opacity:1.0000000;"
     d="M 3.5623781,304.97750 C 74.840108,318.97562 79.965888,436.06455 85.531808,482.64915 L 103.35126,482.64915 L 103.35126,351.04052 C 92.659578,345.44128 92.659578,330.31805 103.35126,324.71880 L 103.35126,304.97750 L 3.5623781,304.97750 z "
     id="path960"
     sodipodi:nodetypes="ccccccc" />
  <path
     style="fill:#87ff00;fill-opacity:1.0000000;fill-rule:evenodd;stroke:none;stroke-width:1.0000000pt;stroke-linecap:butt;stroke-linejoin:miter;stroke-opacity:1.0000000;"
     d="M 213.83181,308.26773 C 198.08537,312.37440 180.51301,321.87346 171.06515,344.46011 C 186.81157,344.46011 204.38395,344.46011 213.83181,344.46011 L 213.83181,308.26773 z "
     id="path961"
     sodipodi:nodetypes="cccc" />
  <path
     style="fill:#d2ff00;fill-opacity:1.0000000;fill-rule:evenodd;stroke:none;stroke-width:1.0000000pt;stroke-linecap:butt;stroke-linejoin:miter;stroke-opacity:1.0000000;"
     d="M 213.83181,304.97752 C 141.77518,318.97564 136.59341,436.06456 130.96667,482.64916 L 112.95249,482.64916 L 112.95249,351.04054 C 123.76100,345.44129 123.76100,330.31806 112.95249,324.71881 L 112.95249,304.97752 L 213.83181,304.97752 z "
     id="path962"
     sodipodi:nodetypes="ccccccc" />
  <path
     style="fill:#37ff00;fill-opacity:1.0000000;fill-rule:evenodd;stroke:none;stroke-width:1.0000000pt;stroke-linecap:butt;stroke-linejoin:miter;stroke-opacity:1.0000000;"
     d="M 213.83182,308.26773 C 227.45771,312.37439 242.66363,321.87345 250.83919,344.46010 C 237.21328,344.46010 222.00736,344.46010 213.83182,344.46010 L 213.83182,308.26773 z "
     id="path963"
     sodipodi:nodetypes="cccc" />
  <path
     style="fill:#00ff36;fill-opacity:1.0000000;fill-rule:evenodd;stroke:none;stroke-width:1.0000000pt;stroke-linecap:butt;stroke-linejoin:miter;stroke-opacity:1.0000000;"
     d="M 213.83182,304.97751 C 275.51075,318.97563 279.94625,436.06456 284.76262,482.64916 L 300.18237,482.64916 L 300.18237,351.04053 C 290.93051,345.44128 290.93051,330.31805 300.18237,324.71881 L 300.18237,304.97751 L 213.83182,304.97751 z "
     id="path964"
     sodipodi:nodetypes="ccccccc" />
  <path
     style="fill:#00ffe1;fill-opacity:1.0000000;fill-rule:evenodd;stroke:none;stroke-width:1.0000000pt;stroke-linecap:butt;stroke-linejoin:miter;stroke-opacity:1.0000000;"
     d="M 392.70081,308.26773 C 379.07491,312.37440 363.86897,321.87346 355.69342,344.46011 C 369.31932,344.46011 384.52526,344.46011 392.70081,344.46011 L 392.70081,308.26773 z "
     id="path965"
     sodipodi:nodetypes="cccc" />
  <path
     style="fill:#00ff96;fill-opacity:1.0000000;fill-rule:evenodd;stroke:none;stroke-width:1.0000000pt;stroke-linecap:butt;stroke-linejoin:miter;stroke-opacity:1.0000000;"
     d="M 392.70081,304.97752 C 331.02185,318.97564 326.58635,436.06456 321.76998,482.64916 L 306.35025,482.64916 L 306.35025,351.04054 C 315.60210,345.44129 315.60210,330.31806 306.35025,324.71881 L 306.35025,304.97752 L 392.70081,304.97752 z "
     id="path966"
     sodipodi:nodetypes="ccccccc" />
  <path
     style="fill:#00deff;fill-opacity:1.0000000;fill-rule:evenodd;stroke:none;stroke-width:1.0000000pt;stroke-linecap:butt;stroke-linejoin:miter;stroke-opacity:1.0000000;"
     d="M 392.40618,308.26771 C 407.16062,312.37437 423.62600,321.87344 432.47882,344.46009 C 417.72427,344.46009 401.25888,344.46009 392.40618,344.46009 L 392.40618,308.26771 z "
     id="path979"
     sodipodi:nodetypes="cccc" />
  <path
     style="fill:#0075ff;fill-opacity:1.0000000;fill-rule:evenodd;stroke:none;stroke-width:1.0000000pt;stroke-linecap:butt;stroke-linejoin:miter;stroke-opacity:1.0000000;"
     d="M 392.40618,304.97750 C 459.19393,318.97562 463.99690,436.06455 469.21221,482.64915 L 485.90903,482.64915 L 485.90903,351.04051 C 475.89110,345.44127 475.89110,330.31804 485.90903,324.71879 L 485.90903,304.97750 L 392.40618,304.97750 z "
     id="path980"
     sodipodi:nodetypes="ccccccc" />
  <path
     style="fill:#6f00ff;fill-opacity:1.0000000;fill-rule:evenodd;stroke:none;stroke-width:1.0000000pt;stroke-linecap:butt;stroke-linejoin:miter;stroke-opacity:1.0000000;"
     d="M 592.83029,308.26772 C 577.53949,312.37437 560.47511,321.87344 551.30058,344.46008 C 566.59147,344.46008 583.65569,344.46008 592.83029,344.46008 L 592.83029,308.26772 z "
     id="path985"
     sodipodi:nodetypes="cccc" />
  <path
     style="fill:#1800ff;fill-opacity:1.0000000;fill-rule:evenodd;stroke:none;stroke-width:1.0000000pt;stroke-linecap:butt;stroke-linejoin:miter;stroke-opacity:1.0000000;"
     d="M 592.83029,304.97750 C 523.61399,318.97562 518.63635,436.06455 513.23136,482.64915 L 495.92730,482.64915 L 495.92730,351.04052 C 506.30973,345.44126 506.30973,330.31804 495.92730,324.71879 L 495.92730,304.97750 L 592.83029,304.97750 z "
     id="path986"
     sodipodi:nodetypes="ccccccc" />
  <path
     style="fill:#b100ff;fill-opacity:1.0000000;fill-rule:evenodd;stroke:none;stroke-width:1.0000000pt;stroke-linecap:butt;stroke-linejoin:miter;stroke-opacity:1.0000000;"
     d="M 592.83029,308.26771 C 606.72139,312.37436 622.22289,321.87343 630.55759,344.46008 C 616.66659,344.46008 601.16499,344.46008 592.83029,344.46008 L 592.83029,308.26771 z "
     id="path987"
     sodipodi:nodetypes="cccc" />
  <path
     style="fill:#ff00f9;fill-opacity:1.0000000;fill-rule:evenodd;stroke:none;stroke-width:1.0000000pt;stroke-linecap:butt;stroke-linejoin:miter;stroke-opacity:1.0000000;"
     d="M 592.83029,304.97749 C 655.70919,318.97561 660.23099,436.06455 665.14109,482.64915 L 680.86069,482.64915 L 680.86069,351.04051 C 671.42889,345.44126 671.42889,330.31803 680.86069,324.71878 L 680.86069,304.97749 L 592.83029,304.97749 z "
     id="path988"
     sodipodi:nodetypes="ccccccc" />
  <path
     style="fill:#ff000a;fill-opacity:1.0000000;fill-rule:evenodd;stroke:none;stroke-width:1.0000000pt;stroke-linecap:butt;stroke-linejoin:miter;stroke-opacity:1.0000000;"
     d="M 778.32289,308.26772 C 764.43179,312.37437 748.93019,321.87344 740.59559,344.46008 C 754.48649,344.46008 769.98839,344.46008 778.32289,344.46008 L 778.32289,308.26772 z "
     id="path989"
     sodipodi:nodetypes="cccc" />
  <path
     style="fill:#ff0069;fill-opacity:1.0000000;fill-rule:evenodd;stroke:none;stroke-width:1.0000000pt;stroke-linecap:butt;stroke-linejoin:miter;stroke-opacity:1.0000000;"
     d="M 778.32289,304.97750 C 715.44409,318.97562 710.92229,436.06455 706.01219,482.64915 L 690.29249,482.64915 L 690.29249,351.04052 C 699.72439,345.44127 699.72439,330.31804 690.29249,324.71879 L 690.29249,304.97750 L 778.32289,304.97750 z "
     id="path990"
     sodipodi:nodetypes="ccccccc" />
  <text
     xml:space="preserve"
     style="font-size:40.000000;font-style:normal;font-variant:normal;font-weight:bold;font-stretch:normal;fill:#000000;fill-opacity:1.0000000;stroke:#000000;stroke-width:1.0000000pt;stroke-linecap:butt;stroke-linejoin:miter;stroke-opacity:1.0000000;font-family:Sans;text-anchor:start;writing-mode:lr;"
     x="33.618107"
     y="189.11217"
     id="text982"
     sodipodi:linespacing="100%"
     transform="scale(1.388458,1.584840)"><tspan
       id="tspan983">C  LLAB  RATI  N TO  LS</tspan></text>
  <path
     sodipodi:type="arc"
     style="fill:#ff00b1;fill-opacity:1.0000000;fill-rule:evenodd;stroke:none;stroke-width:3.5433071;stroke-linecap:butt;stroke-linejoin:miter;stroke-miterlimit:4.0000000;stroke-opacity:1.0000000;"
     id="path1620"
     sodipodi:cx="217.91339"
     sodipodi:cy="-21.259848"
     sodipodi:rx="15.944881"
     sodipodi:ry="21.259842"
     d="M 233.85827,-21.259848 A 15.944881,21.259842 0 1 1 233.85718,-21.508166 L 217.91339,-21.259848 z"
     sodipodi:start="0.0000000"
     sodipodi:end="6.2715049"
     transform="matrix(1.200980,0.000000,0.000000,1.034519,422.1487,297.7901)" />
  <path
     sodipodi:type="arc"
     style="fill:#0031ff;fill-opacity:1.0000000;fill-rule:evenodd;stroke:none;stroke-width:3.5433071;stroke-linecap:butt;stroke-linejoin:miter;stroke-miterlimit:4.0000000;stroke-opacity:1.0000000;"
     id="path1624"
     sodipodi:cx="217.91339"
     sodipodi:cy="-21.259848"
     sodipodi:rx="15.944881"
     sodipodi:ry="21.259842"
     d="M 233.85827,-21.259848 A 15.944881,21.259842 0 1 1 233.85718,-21.508166 L 217.91339,-21.259848 z"
     sodipodi:start="0.0000000"
     sodipodi:end="6.2715049"
     transform="matrix(1.200980,0.000000,0.000000,1.034519,230.8101,298.6248)" />
  <path
     sodipodi:type="arc"
     style="fill:#00ff52;fill-opacity:1.0000000;fill-rule:evenodd;stroke:none;stroke-width:3.5433071;stroke-linecap:butt;stroke-linejoin:miter;stroke-miterlimit:4.0000000;stroke-opacity:1.0000000;"
     id="path1625"
     sodipodi:cx="217.91339"
     sodipodi:cy="-21.259848"
     sodipodi:rx="15.944881"
     sodipodi:ry="21.259842"
     d="M 233.85827,-21.259848 A 15.944881,21.259842 0 1 1 233.85718,-21.508166 L 217.91339,-21.259848 z"
     sodipodi:start="0.0000000"
     sodipodi:end="6.2715049"
     transform="matrix(1.200980,0.000000,0.000000,1.034519,39.20019,299.4595)" />
  <path
     sodipodi:type="arc"
     style="fill:#ffd800;fill-opacity:1.0000000;fill-rule:evenodd;stroke:none;stroke-width:3.5433071;stroke-linecap:butt;stroke-linejoin:miter;stroke-miterlimit:4.0000000;stroke-opacity:1.0000000;"
     id="path1626"
     sodipodi:cx="217.91339"
     sodipodi:cy="-21.259848"
     sodipodi:rx="15.944881"
     sodipodi:ry="21.259842"
     d="M 233.85827,-21.259848 A 15.944881,21.259842 0 1 1 233.85718,-21.508166 L 217.91339,-21.259848 z"
     sodipodi:start="0.0000000"
     sodipodi:end="6.2715049"
     transform="matrix(1.200980,0.000000,0.000000,1.034519,-155.4104,298.6248)" />
</svg>
