<?xml version="1.0" encoding="UTF-8" standalone="no"?>
<!DOCTYPE svg PUBLIC "-//W3C//DTD SVG 20010904//EN"
"http://www.w3.org/TR/2001/REC-SVG-20010904/DTD/svg10.dtd">
<!-- Created with Inkscape (http://www.inkscape.org/) -->
<svg
   id="svg908"
   sodipodi:version="0.32"
   inkscape:version="0.39"
   width="22.500000cm"
   height="13.500000cm"
   sodipodi:docbase="/home/twiki/DEVELOP/pub/TWiki/TWikiLogos"
   sodipodi:docname="horzTWikiPowered.svg"
   inkscape:export-filename="/home/twiki/DEVELOP/pub/TWiki/TWikiLogos/horzTWikiPowered.gif"
   inkscape:export-xdpi="23.200001"
   inkscape:export-ydpi="23.200001"
   xmlns="http://www.w3.org/2000/svg"
   xmlns:cc="http://web.resource.org/cc/"
   xmlns:inkscape="http://www.inkscape.org/namespaces/inkscape"
   xmlns:sodipodi="http://sodipodi.sourceforge.net/DTD/sodipodi-0.dtd"
   xmlns:rdf="http://www.w3.org/1999/02/22-rdf-syntax-ns#"
   xmlns:xml="http://www.w3.org/XML/1998/namespace"
   xmlns:dc="http://purl.org/dc/elements/1.1/"
   xmlns:xlink="http://www.w3.org/1999/xlink">
  <defs
     id="defs910" />
  <sodipodi:namedview
     id="base"
     pagecolor="#ffffff"
     bordercolor="#666666"
     borderopacity="1.0"
     inkscape:pageopacity="0.0"
     inkscape:pageshadow="2"
     inkscape:zoom="1.3592616"
     inkscape:cx="318.65134"
     inkscape:cy="148.08383"
     inkscape:window-width="1272"
     inkscape:window-height="951"
     inkscape:grid-points="true"
     showgrid="true"
     inkscape:window-x="0"
     inkscape:window-y="0"
     gridtolerance="1.0000000mm"
     gridspacingy="1.0000000mm"
     gridspacingx="1.0000000mm" />
  <metadata
     id="metadata911">
    <rdf:RDF
       id="RDF912">
      <cc:Work
         rdf:about=""
         id="Work913">
        <dc:format
           id="format914">image/svg+xml</dc:format>
        <dc:type
           id="type916"
           rdf:resource="http://purl.org/dc/dcmitype/StillImage" />
      </cc:Work>
    </rdf:RDF>
  </metadata>
  <text
     xml:space="preserve"
     style="font-size:48.000000;font-style:italic;font-variant:normal;font-weight:bold;font-stretch:normal;fill:#000000;fill-opacity:1.0000000;stroke:none;stroke-width:1.0000000pt;stroke-linecap:butt;stroke-linejoin:miter;stroke-opacity:1.0000000;font-family:Sans;text-anchor:start;writing-mode:lr;"
     x="211.56528"
     y="53.341515"
     id="text1645"
     sodipodi:linespacing="100%"><tspan
       id="tspan1646">POWERED BY</tspan></text>
  <path
     style="fill:#d21f08;fill-opacity:1.0000000;fill-rule:evenodd;stroke:none;stroke-width:1.0000000pt;stroke-linecap:butt;stroke-linejoin:miter;stroke-opacity:1.0000000;"
     d="M 164.35789,70.507806 C 177.62526,74.024356 192.43107,82.158436 200.39151,101.49944 C 187.12414,101.49944 172.31832,101.49944 164.35789,101.49944 L 164.35789,70.507806 z "
     id="path1648"
     sodipodi:nodetypes="cccc" />
  <path
     style="fill:#d21f08;fill-opacity:1.0000000;fill-rule:evenodd;stroke:none;stroke-width:1.0000000pt;stroke-linecap:butt;stroke-linejoin:miter;stroke-opacity:1.0000000;"
     d="M 164.35789,67.690387 C 224.41391,79.677016 228.73270,179.94061 233.42234,219.83114 L 248.43636,219.83114 L 248.43636,107.13428 C 239.42794,102.33963 239.42794,89.389568 248.43636,84.594906 L 248.43636,67.690387 L 164.35789,67.690387 z "
     id="path1649"
     sodipodi:nodetypes="ccccccc" />
  <path
     style="fill:#d21f08;fill-opacity:1.0000000;fill-rule:evenodd;stroke:none;stroke-width:1.0000000pt;stroke-linecap:butt;stroke-linejoin:miter;stroke-opacity:1.0000000;"
     d="M 341.52324,70.507816 C 328.25587,74.024366 313.45003,82.158446 305.48962,101.49945 C 318.75698,101.49945 333.56282,101.49945 341.52324,101.49945 L 341.52324,70.507816 z "
     id="path1650"
     sodipodi:nodetypes="cccc" />
  <path
     style="fill:#d21f08;fill-opacity:1.0000000;fill-rule:evenodd;stroke:none;stroke-width:1.0000000pt;stroke-linecap:butt;stroke-linejoin:miter;stroke-opacity:1.0000000;"
     d="M 341.52324,67.690397 C 281.46721,79.677026 277.14843,179.94061 272.45879,219.83115 L 257.44476,219.83115 L 257.44476,107.13429 C 266.45318,102.33964 266.45318,89.389578 257.44476,84.594926 L 257.44476,67.690397 L 341.52324,67.690397 z "
     id="path1651"
     sodipodi:nodetypes="ccccccc" />
  <text
     xml:space="preserve"
     style="font-size:72.000000;font-style:normal;font-variant:normal;font-weight:bold;font-stretch:normal;fill:#d21f08;fill-opacity:1.0000000;stroke:none;stroke-width:1.0000000pt;stroke-linecap:butt;stroke-linejoin:miter;stroke-opacity:1.0000000;font-family:Sans;text-anchor:start;writing-mode:lr;"
     x="172.63620"
     y="105.47240"
     id="text1652"
     sodipodi:linespacing="100%"
     transform="scale(1.752954,2.054725)"><tspan
       id="tspan1653">Wiki</tspan></text>
  <path
     style="fill:#ff2700;fill-opacity:1.0000000;fill-rule:evenodd;stroke:none;stroke-width:1.0000000pt;stroke-linecap:butt;stroke-linejoin:miter;stroke-opacity:1.0000000;"
     d="M 11.647727,288.72949 C 27.394157,292.83615 44.966507,302.33522 54.414377,324.92186 C 38.667947,324.92186 21.095597,324.92186 11.647727,324.92186 L 11.647727,288.72949 z "
     id="path959"
     sodipodi:nodetypes="cccc" />
  <path
     style="fill:#ff8100;fill-opacity:1.0000000;fill-rule:evenodd;stroke:none;stroke-width:1.0000000pt;stroke-linecap:butt;stroke-linejoin:miter;stroke-opacity:1.0000000;"
     d="M 11.647727,285.43927 C 82.925457,299.43739 88.051237,416.52632 93.617157,463.11092 L 111.43661,463.11092 L 111.43661,331.50229 C 100.74493,325.90305 100.74493,310.77982 111.43661,305.18057 L 111.43661,285.43927 L 11.647727,285.43927 z "
     id="path960"
     sodipodi:nodetypes="ccccccc" />
  <path
     style="fill:#87ff00;fill-opacity:1.0000000;fill-rule:evenodd;stroke:none;stroke-width:1.0000000pt;stroke-linecap:butt;stroke-linejoin:miter;stroke-opacity:1.0000000;"
     d="M 221.91716,288.72950 C 206.17072,292.83617 188.59836,302.33523 179.15050,324.92188 C 194.89692,324.92188 212.46930,324.92188 221.91716,324.92188 L 221.91716,288.72950 z "
     id="path961"
     sodipodi:nodetypes="cccc" />
  <path
     style="fill:#d2ff00;fill-opacity:1.0000000;fill-rule:evenodd;stroke:none;stroke-width:1.0000000pt;stroke-linecap:butt;stroke-linejoin:miter;stroke-opacity:1.0000000;"
     d="M 221.91716,285.43929 C 149.86053,299.43741 144.67876,416.52633 139.05202,463.11093 L 121.03784,463.11093 L 121.03784,331.50231 C 131.84635,325.90306 131.84635,310.77983 121.03784,305.18058 L 121.03784,285.43929 L 221.91716,285.43929 z "
     id="path962"
     sodipodi:nodetypes="ccccccc" />
  <path
     style="fill:#37ff00;fill-opacity:1.0000000;fill-rule:evenodd;stroke:none;stroke-width:1.0000000pt;stroke-linecap:butt;stroke-linejoin:miter;stroke-opacity:1.0000000;"
     d="M 221.91717,288.72950 C 235.54306,292.83616 250.74898,302.33522 258.92454,324.92187 C 245.29863,324.92187 230.09271,324.92187 221.91717,324.92187 L 221.91717,288.72950 z "
     id="path963"
     sodipodi:nodetypes="cccc" />
  <path
     style="fill:#00ff36;fill-opacity:1.0000000;fill-rule:evenodd;stroke:none;stroke-width:1.0000000pt;stroke-linecap:butt;stroke-linejoin:miter;stroke-opacity:1.0000000;"
     d="M 221.91717,285.43928 C 283.59610,299.43740 288.03160,416.52633 292.84797,463.11093 L 308.26772,463.11093 L 308.26772,331.50230 C 299.01586,325.90305 299.01586,310.77982 308.26772,305.18058 L 308.26772,285.43928 L 221.91717,285.43928 z "
     id="path964"
     sodipodi:nodetypes="ccccccc" />
  <path
     style="fill:#00ffe1;fill-opacity:1.0000000;fill-rule:evenodd;stroke:none;stroke-width:1.0000000pt;stroke-linecap:butt;stroke-linejoin:miter;stroke-opacity:1.0000000;"
     d="M 400.78615,288.72950 C 387.16025,292.83617 371.95431,302.33523 363.77876,324.92188 C 377.40466,324.92188 392.61060,324.92188 400.78615,324.92188 L 400.78615,288.72950 z "
     id="path965"
     sodipodi:nodetypes="cccc" />
  <path
     style="fill:#00ff96;fill-opacity:1.0000000;fill-rule:evenodd;stroke:none;stroke-width:1.0000000pt;stroke-linecap:butt;stroke-linejoin:miter;stroke-opacity:1.0000000;"
     d="M 400.78615,285.43929 C 339.10719,299.43741 334.67169,416.52633 329.85532,463.11093 L 314.43560,463.11093 L 314.43560,331.50231 C 323.68744,325.90306 323.68744,310.77983 314.43560,305.18058 L 314.43560,285.43929 L 400.78615,285.43929 z "
     id="path966"
     sodipodi:nodetypes="ccccccc" />
  <path
     style="fill:#00deff;fill-opacity:1.0000000;fill-rule:evenodd;stroke:none;stroke-width:1.0000000pt;stroke-linecap:butt;stroke-linejoin:miter;stroke-opacity:1.0000000;"
     d="M 400.49152,288.72948 C 415.24596,292.83614 431.71134,302.33521 440.56416,324.92186 C 425.80961,324.92186 409.34422,324.92186 400.49152,324.92186 L 400.49152,288.72948 z "
     id="path979"
     sodipodi:nodetypes="cccc" />
  <path
     style="fill:#0075ff;fill-opacity:1.0000000;fill-rule:evenodd;stroke:none;stroke-width:1.0000000pt;stroke-linecap:butt;stroke-linejoin:miter;stroke-opacity:1.0000000;"
     d="M 400.49152,285.43927 C 467.27927,299.43739 472.08224,416.52632 477.29755,463.11092 L 493.99437,463.11092 L 493.99437,331.50228 C 483.97644,325.90304 483.97644,310.77981 493.99437,305.18056 L 493.99437,285.43927 L 400.49152,285.43927 z "
     id="path980"
     sodipodi:nodetypes="ccccccc" />
  <path
     style="fill:#6f00ff;fill-opacity:1.0000000;fill-rule:evenodd;stroke:none;stroke-width:1.0000000pt;stroke-linecap:butt;stroke-linejoin:miter;stroke-opacity:1.0000000;"
     d="M 600.91562,288.72949 C 585.62482,292.83614 568.56046,302.33521 559.38593,324.92185 C 574.67682,324.92185 591.74107,324.92185 600.91562,324.92185 L 600.91562,288.72949 z "
     id="path985"
     sodipodi:nodetypes="cccc" />
  <path
     style="fill:#1800ff;fill-opacity:1.0000000;fill-rule:evenodd;stroke:none;stroke-width:1.0000000pt;stroke-linecap:butt;stroke-linejoin:miter;stroke-opacity:1.0000000;"
     d="M 600.91562,285.43927 C 531.69934,299.43739 526.72170,416.52632 521.31671,463.11092 L 504.01264,463.11092 L 504.01264,331.50229 C 514.39507,325.90303 514.39507,310.77981 504.01264,305.18056 L 504.01264,285.43927 L 600.91562,285.43927 z "
     id="path986"
     sodipodi:nodetypes="ccccccc" />
  <path
     style="fill:#b100ff;fill-opacity:1.0000000;fill-rule:evenodd;stroke:none;stroke-width:1.0000000pt;stroke-linecap:butt;stroke-linejoin:miter;stroke-opacity:1.0000000;"
     d="M 600.91562,288.72948 C 614.80673,292.83613 630.30821,302.33520 638.64290,324.92185 C 624.75198,324.92185 609.25030,324.92185 600.91562,324.92185 L 600.91562,288.72948 z "
     id="path987"
     sodipodi:nodetypes="cccc" />
  <path
     style="fill:#ff00f9;fill-opacity:1.0000000;fill-rule:evenodd;stroke:none;stroke-width:1.0000000pt;stroke-linecap:butt;stroke-linejoin:miter;stroke-opacity:1.0000000;"
     d="M 600.91562,285.43926 C 663.79449,299.43738 668.31635,416.52632 673.22647,463.11092 L 688.94607,463.11092 L 688.94607,331.50228 C 679.51419,325.90303 679.51419,310.77980 688.94607,305.18055 L 688.94607,285.43926 L 600.91562,285.43926 z "
     id="path988"
     sodipodi:nodetypes="ccccccc" />
  <path
     style="fill:#ff000a;fill-opacity:1.0000000;fill-rule:evenodd;stroke:none;stroke-width:1.0000000pt;stroke-linecap:butt;stroke-linejoin:miter;stroke-opacity:1.0000000;"
     d="M 786.40819,288.72949 C 772.51717,292.83614 757.01551,302.33521 748.68092,324.92185 C 762.57183,324.92185 778.07371,324.92185 786.40819,324.92185 L 786.40819,288.72949 z "
     id="path989"
     sodipodi:nodetypes="cccc" />
  <path
     style="fill:#ff0069;fill-opacity:1.0000000;fill-rule:evenodd;stroke:none;stroke-width:1.0000000pt;stroke-linecap:butt;stroke-linejoin:miter;stroke-opacity:1.0000000;"
     d="M 786.40819,285.43927 C 723.52942,299.43739 719.00764,416.52632 714.09755,463.11092 L 698.37783,463.11092 L 698.37783,331.50229 C 707.80971,325.90304 707.80971,310.77981 698.37783,305.18056 L 698.37783,285.43927 L 786.40819,285.43927 z "
     id="path990"
     sodipodi:nodetypes="ccccccc" />
  <text
     xml:space="preserve"
     style="font-size:40.000000;font-style:normal;font-variant:normal;font-weight:bold;font-stretch:normal;fill:#000000;fill-opacity:1.0000000;stroke:#000000;stroke-width:1.0000000pt;stroke-linecap:butt;stroke-linejoin:miter;stroke-opacity:1.0000000;font-family:Sans;text-anchor:start;writing-mode:lr;"
     x="39.441357"
     y="176.78397"
     id="text982"
     sodipodi:linespacing="100%"
     transform="scale(1.388458,1.584840)"><tspan
       id="tspan983">C  LLAB  RATI  N TO  LS</tspan></text>
  <path
     sodipodi:type="arc"
     style="fill:#ff00b1;fill-opacity:1.0000000;fill-rule:evenodd;stroke:none;stroke-width:3.5433071;stroke-linecap:butt;stroke-linejoin:miter;stroke-miterlimit:4.0000000;stroke-opacity:1.0000000;"
     id="path1620"
     sodipodi:cx="217.91339"
     sodipodi:cy="-21.259848"
     sodipodi:rx="15.944881"
     sodipodi:ry="21.259842"
     d="M 233.85827,-21.259848 A 15.944881,21.259842 0 1 1 233.85718,-21.508166 L 217.91339,-21.259848 z"
     sodipodi:start="0.0000000"
     sodipodi:end="6.2715049"
     transform="matrix(1.200980,0.000000,0.000000,1.034519,430.2340,278.2518)" />
  <path
     sodipodi:type="arc"
     style="fill:#0031ff;fill-opacity:1.0000000;fill-rule:evenodd;stroke:none;stroke-width:3.5433071;stroke-linecap:butt;stroke-linejoin:miter;stroke-miterlimit:4.0000000;stroke-opacity:1.0000000;"
     id="path1624"
     sodipodi:cx="217.91339"
     sodipodi:cy="-21.259848"
     sodipodi:rx="15.944881"
     sodipodi:ry="21.259842"
     d="M 233.85827,-21.259848 A 15.944881,21.259842 0 1 1 233.85718,-21.508166 L 217.91339,-21.259848 z"
     sodipodi:start="0.0000000"
     sodipodi:end="6.2715049"
     transform="matrix(1.200980,0.000000,0.000000,1.034519,238.8954,279.0865)" />
  <path
     sodipodi:type="arc"
     style="fill:#00ff52;fill-opacity:1.0000000;fill-rule:evenodd;stroke:none;stroke-width:3.5433071;stroke-linecap:butt;stroke-linejoin:miter;stroke-miterlimit:4.0000000;stroke-opacity:1.0000000;"
     id="path1625"
     sodipodi:cx="217.91339"
     sodipodi:cy="-21.259848"
     sodipodi:rx="15.944881"
     sodipodi:ry="21.259842"
     d="M 233.85827,-21.259848 A 15.944881,21.259842 0 1 1 233.85718,-21.508166 L 217.91339,-21.259848 z"
     sodipodi:start="0.0000000"
     sodipodi:end="6.2715049"
     transform="matrix(1.200980,0.000000,0.000000,1.034519,47.28551,279.9212)" />
  <path
     sodipodi:type="arc"
     style="fill:#ffd800;fill-opacity:1.0000000;fill-rule:evenodd;stroke:none;stroke-width:3.5433071;stroke-linecap:butt;stroke-linejoin:miter;stroke-miterlimit:4.0000000;stroke-opacity:1.0000000;"
     id="path1626"
     sodipodi:cx="217.91339"
     sodipodi:cy="-21.259848"
     sodipodi:rx="15.944881"
     sodipodi:ry="21.259842"
     d="M 233.85827,-21.259848 A 15.944881,21.259842 0 1 1 233.85718,-21.508166 L 217.91339,-21.259848 z"
     sodipodi:start="0.0000000"
     sodipodi:end="6.2715049"
     transform="matrix(1.200980,0.000000,0.000000,1.034519,-147.3251,279.0865)" />
</svg>
