<?xml version="1.0" encoding="UTF-8" standalone="no"?>
<!DOCTYPE svg PUBLIC "-//W3C//DTD SVG 20010904//EN"
"http://www.w3.org/TR/2001/REC-SVG-20010904/DTD/svg10.dtd">
<!-- Created with Inkscape (http://www.inkscape.org/) -->
<svg
   id="svg908"
   sodipodi:version="0.32"
   inkscape:version="0.39"
   width="25.500000cm"
   height="17.000000cm"
   sodipodi:docbase="/home/twiki/DEVELOP/pub/TWiki/TWikiLogos"
   sodipodi:docname="vertTWikiPowered.svg"
   inkscape:export-filename="/home/twiki/DEVELOP/pub/TWiki/TWikiLogos/vertTWikiPowered.gif"
   inkscape:export-xdpi="24.860001"
   inkscape:export-ydpi="24.860001"
   xmlns="http://www.w3.org/2000/svg"
   xmlns:cc="http://web.resource.org/cc/"
   xmlns:inkscape="http://www.inkscape.org/namespaces/inkscape"
   xmlns:sodipodi="http://sodipodi.sourceforge.net/DTD/sodipodi-0.dtd"
   xmlns:rdf="http://www.w3.org/1999/02/22-rdf-syntax-ns#"
   xmlns:xml="http://www.w3.org/XML/1998/namespace"
   xmlns:dc="http://purl.org/dc/elements/1.1/"
   xmlns:xlink="http://www.w3.org/1999/xlink">
  <defs
     id="defs910" />
  <sodipodi:namedview
     id="base"
     pagecolor="#ffffff"
     bordercolor="#666666"
     borderopacity="1.0"
     inkscape:pageopacity="0.0"
     inkscape:pageshadow="2"
     inkscape:zoom="0.96114310"
     inkscape:cx="318.65133"
     inkscape:cy="148.08385"
     inkscape:window-width="1272"
     inkscape:window-height="951"
     inkscape:grid-points="true"
     showgrid="true"
     inkscape:window-x="0"
     inkscape:window-y="0"
     gridtolerance="1.0000000mm"
     gridspacingy="1.0000000mm"
     gridspacingx="1.0000000mm"
     borderlayer="top" />
  <metadata
     id="metadata911">
    <rdf:RDF
       id="RDF912">
      <cc:Work
         rdf:about=""
         id="Work913">
        <dc:format
           id="format914">image/svg+xml</dc:format>
        <dc:type
           id="type916"
           rdf:resource="http://purl.org/dc/dcmitype/StillImage" />
      </cc:Work>
    </rdf:RDF>
  </metadata>
  <path
     style="fill:#c80000;fill-opacity:1.0000000;fill-rule:evenodd;stroke:none;stroke-width:1.0000000pt;stroke-linecap:butt;stroke-linejoin:miter;stroke-opacity:1.0000000;"
     d="M 80.919781,61.501654 C 96.666210,65.608314 114.23856,75.107384 123.68643,97.694024 C 107.94000,97.694024 90.367651,97.694024 80.919781,97.694024 L 80.919781,61.501654 z "
     id="path959"
     sodipodi:nodetypes="cccc" />
  <path
     style="fill:#c80000;fill-opacity:1.0000000;fill-rule:evenodd;stroke:none;stroke-width:1.0000000pt;stroke-linecap:butt;stroke-linejoin:miter;stroke-opacity:1.0000000;"
     d="M 80.919781,58.211434 C 152.19751,72.209554 157.32329,189.29848 162.88921,235.88308 L 180.70866,235.88308 L 180.70866,104.27445 C 170.01698,98.675214 170.01698,83.551984 180.70866,77.952734 L 180.70866,58.211434 L 80.919781,58.211434 z "
     id="path960"
     sodipodi:nodetypes="ccccccc" />
  <path
     style="fill:#c80000;fill-opacity:1.0000000;fill-rule:evenodd;stroke:none;stroke-width:1.0000000pt;stroke-linecap:butt;stroke-linejoin:miter;stroke-opacity:1.0000000;"
     d="M 291.18921,61.501664 C 275.44277,65.608334 257.87041,75.107394 248.42255,97.694044 C 264.16897,97.694044 281.74135,97.694044 291.18921,97.694044 L 291.18921,61.501664 z "
     id="path961"
     sodipodi:nodetypes="cccc" />
  <path
     style="fill:#c80000;fill-opacity:1.0000000;fill-rule:evenodd;stroke:none;stroke-width:1.0000000pt;stroke-linecap:butt;stroke-linejoin:miter;stroke-opacity:1.0000000;"
     d="M 291.18921,58.211454 C 219.13258,72.209574 213.95081,189.29849 208.32407,235.88309 L 190.30989,235.88309 L 190.30989,104.27447 C 201.11840,98.675224 201.11840,83.551994 190.30989,77.952744 L 190.30989,58.211454 L 291.18921,58.211454 z "
     id="path962"
     sodipodi:nodetypes="ccccccc" />
  <path
     sodipodi:type="arc"
     style="fill:#c80000;fill-opacity:1.0000000;fill-rule:evenodd;stroke:none;stroke-width:3.5433071;stroke-linecap:butt;stroke-linejoin:miter;stroke-miterlimit:4.0000000;stroke-opacity:1.0000000;"
     id="path1626"
     sodipodi:cx="217.91339"
     sodipodi:cy="-21.259848"
     sodipodi:rx="15.944881"
     sodipodi:ry="21.259842"
     d="M 233.85827,-21.259848 A 15.944881,21.259842 0 1 1 233.85718,-21.508166 L 217.91339,-21.259848 z"
     sodipodi:start="0.0000000"
     sodipodi:end="6.2715049"
     transform="matrix(1.200980,0.000000,0.000000,1.034519,-78.05307,51.85866)" />
  <text
     xml:space="preserve"
     style="font-size:72.000000;font-style:normal;font-variant:normal;font-weight:bold;font-stretch:normal;fill:#c80000;fill-opacity:1.0000000;stroke:none;stroke-width:1.0000000pt;stroke-linecap:butt;stroke-linejoin:miter;stroke-opacity:1.0000000;font-family:Sans;text-anchor:start;writing-mode:lr;"
     x="137.62550"
     y="111.12133"
     id="text1652"
     sodipodi:linespacing="100%"
     transform="scale(1.752954,2.054725)"><tspan
       id="tspan1653">Wiki</tspan></text>
  <path
     style="fill:#00c800;fill-opacity:1.0000000;fill-rule:evenodd;stroke:none;stroke-width:1.0000000pt;stroke-linecap:butt;stroke-linejoin:miter;stroke-opacity:1.0000000;"
     d="M 82.596871,241.20508 C 98.343300,245.31174 115.91565,254.81081 125.36352,277.39745 C 109.61709,277.39745 92.044741,277.39745 82.596871,277.39745 L 82.596871,241.20508 z "
     id="path7886"
     sodipodi:nodetypes="cccc" />
  <path
     style="fill:#00c800;fill-opacity:1.0000000;fill-rule:evenodd;stroke:none;stroke-width:1.0000000pt;stroke-linecap:butt;stroke-linejoin:miter;stroke-opacity:1.0000000;"
     d="M 82.596871,237.91486 C 153.87460,251.91298 159.00038,369.00190 164.56630,415.58650 L 182.38575,415.58650 L 182.38575,283.97787 C 171.69407,278.37864 171.69407,263.25541 182.38575,257.65616 L 182.38575,237.91486 L 82.596871,237.91486 z "
     id="path7887"
     sodipodi:nodetypes="ccccccc" />
  <path
     style="fill:#00c800;fill-opacity:1.0000000;fill-rule:evenodd;stroke:none;stroke-width:1.0000000pt;stroke-linecap:butt;stroke-linejoin:miter;stroke-opacity:1.0000000;"
     d="M 292.86630,241.20509 C 277.11986,245.31176 259.54750,254.81082 250.09964,277.39747 C 265.84606,277.39747 283.41844,277.39747 292.86630,277.39747 L 292.86630,241.20509 z "
     id="path7888"
     sodipodi:nodetypes="cccc" />
  <path
     style="fill:#00c800;fill-opacity:1.0000000;fill-rule:evenodd;stroke:none;stroke-width:1.0000000pt;stroke-linecap:butt;stroke-linejoin:miter;stroke-opacity:1.0000000;"
     d="M 292.86630,237.91488 C 220.80967,251.91300 215.62790,369.00191 210.00116,415.58651 L 191.98698,415.58651 L 191.98698,283.97789 C 202.79549,278.37865 202.79549,263.25542 191.98698,257.65617 L 191.98698,237.91488 L 292.86630,237.91488 z "
     id="path7889"
     sodipodi:nodetypes="ccccccc" />
  <text
     xml:space="preserve"
     style="font-size:72.000000;font-style:normal;font-variant:normal;font-weight:bold;font-stretch:normal;fill:#00c800;fill-opacity:1.0000000;stroke:none;stroke-width:1.0000000pt;stroke-linecap:butt;stroke-linejoin:miter;stroke-opacity:1.0000000;font-family:Sans;text-anchor:start;writing-mode:lr;"
     x="138.58223"
     y="198.57994"
     id="text7891"
     sodipodi:linespacing="100%"
     transform="scale(1.752954,2.054725)"><tspan
       id="tspan7892">eamwork</tspan></text>
  <path
     style="fill:#0000c8;fill-opacity:1.0000000;fill-rule:evenodd;stroke:none;stroke-width:1.0000000pt;stroke-linecap:butt;stroke-linejoin:miter;stroke-opacity:1.0000000;"
     d="M 82.596842,421.12906 C 98.343271,425.23572 115.91562,434.73479 125.36349,457.32143 C 109.61706,457.32143 92.044712,457.32143 82.596842,457.32143 L 82.596842,421.12906 z "
     id="path7894"
     sodipodi:nodetypes="cccc" />
  <path
     style="fill:#0000c8;fill-opacity:1.0000000;fill-rule:evenodd;stroke:none;stroke-width:1.0000000pt;stroke-linecap:butt;stroke-linejoin:miter;stroke-opacity:1.0000000;"
     d="M 82.596842,417.83884 C 153.87457,431.83696 159.00035,548.92588 164.56627,595.51048 L 182.38572,595.51048 L 182.38572,463.90185 C 171.69404,458.30262 171.69404,443.17939 182.38572,437.58014 L 182.38572,417.83884 L 82.596842,417.83884 z "
     id="path7895"
     sodipodi:nodetypes="ccccccc" />
  <path
     style="fill:#0000c8;fill-opacity:1.0000000;fill-rule:evenodd;stroke:none;stroke-width:1.0000000pt;stroke-linecap:butt;stroke-linejoin:miter;stroke-opacity:1.0000000;"
     d="M 292.86627,421.12907 C 277.11983,425.23574 259.54747,434.73480 250.09961,457.32145 C 265.84603,457.32145 283.41841,457.32145 292.86627,457.32145 L 292.86627,421.12907 z "
     id="path7896"
     sodipodi:nodetypes="cccc" />
  <path
     style="fill:#0000c8;fill-opacity:1.0000000;fill-rule:evenodd;stroke:none;stroke-width:1.0000000pt;stroke-linecap:butt;stroke-linejoin:miter;stroke-opacity:1.0000000;"
     d="M 292.86627,417.83886 C 220.80964,431.83698 215.62787,548.92589 210.00113,595.51049 L 191.98695,595.51049 L 191.98695,463.90187 C 202.79546,458.30263 202.79546,443.17940 191.98695,437.58015 L 191.98695,417.83886 L 292.86627,417.83886 z "
     id="path7897"
     sodipodi:nodetypes="ccccccc" />
  <text
     xml:space="preserve"
     style="font-size:72.000000;font-style:normal;font-variant:normal;font-weight:bold;font-stretch:normal;fill:#0000c8;fill-opacity:1.0000000;stroke:none;stroke-width:1.0000000pt;stroke-linecap:butt;stroke-linejoin:miter;stroke-opacity:1.0000000;font-family:Sans;text-anchor:start;writing-mode:lr;"
     x="138.58221"
     y="286.14590"
     id="text7899"
     sodipodi:linespacing="100%"
     transform="scale(1.752954,2.054725)"><tspan
       id="tspan7900">ools</tspan></text>
  <path
     sodipodi:type="arc"
     style="fill:#00c800;fill-opacity:1.0000000;fill-rule:evenodd;stroke:none;stroke-width:3.5433071;stroke-linecap:butt;stroke-linejoin:miter;stroke-miterlimit:4.0000000;stroke-opacity:1.0000000;"
     id="path7890"
     sodipodi:cx="217.91339"
     sodipodi:cy="-21.259848"
     sodipodi:rx="15.944881"
     sodipodi:ry="21.259842"
     d="M 233.85827,-21.259848 A 15.944881,21.259842 0 1 1 233.85718,-21.508166 L 217.91339,-21.259848 z"
     sodipodi:start="0.0000000"
     sodipodi:end="6.2715049"
     transform="matrix(1.200980,0.000000,0.000000,1.034519,-76.37597,231.5621)" />
  <path
     sodipodi:type="arc"
     style="fill:#0000c8;fill-opacity:1.0000000;fill-rule:evenodd;stroke:none;stroke-width:3.5433071;stroke-linecap:butt;stroke-linejoin:miter;stroke-miterlimit:4.0000000;stroke-opacity:1.0000000;"
     id="path7898"
     sodipodi:cx="217.91339"
     sodipodi:cy="-21.259848"
     sodipodi:rx="15.944881"
     sodipodi:ry="21.259842"
     d="M 233.85827,-21.259848 A 15.944881,21.259842 0 1 1 233.85718,-21.508166 L 217.91339,-21.259848 z"
     sodipodi:start="0.0000000"
     sodipodi:end="6.2715049"
     transform="matrix(1.200980,0.000000,0.000000,1.034519,-76.37597,411.4862)" />
  <text
     xml:space="preserve"
     style="font-size:72.000000;font-style:italic;font-variant:normal;font-weight:bold;font-stretch:normal;fill:#000000;fill-opacity:1.0000000;stroke:none;stroke-width:1.0000000pt;stroke-linecap:butt;stroke-linejoin:miter;stroke-opacity:1.0000000;font-family:Sans;text-anchor:start;writing-mode:lr;"
     x="-580.69543"
     y="66.232994"
     id="text15581"
     sodipodi:linespacing="100%"
     transform="matrix(0.000000,-1.000000,1.000000,0.000000,0.000000,0.000000)"><tspan
       id="tspan15582">POWERED BY</tspan></text>
</svg>
