<?xml version="1.0" encoding="UTF-8" standalone="no"?>
<!DOCTYPE svg PUBLIC "-//W3C//DTD SVG 20010904//EN"
"http://www.w3.org/TR/2001/REC-SVG-20010904/DTD/svg10.dtd">
<!-- Created with Inkscape (http://www.inkscape.org/) -->
<svg
   id="svg908"
   sodipodi:version="0.32"
   inkscape:version="0.39"
   width="23.500000cm"
   height="17.000000cm"
   sodipodi:docbase="/home/twiki/DEVELOP/pub/TWiki/TWikiLogos"
   sodipodi:docname="vertTWiki.svg"
   inkscape:export-filename="/home/crawford/logos/vertTWiki.png"
   inkscape:export-xdpi="500.01999"
   inkscape:export-ydpi="500.01999"
   xmlns="http://www.w3.org/2000/svg"
   xmlns:cc="http://web.resource.org/cc/"
   xmlns:inkscape="http://www.inkscape.org/namespaces/inkscape"
   xmlns:sodipodi="http://sodipodi.sourceforge.net/DTD/sodipodi-0.dtd"
   xmlns:rdf="http://www.w3.org/1999/02/22-rdf-syntax-ns#"
   xmlns:dc="http://purl.org/dc/elements/1.1/"
   xmlns:xlink="http://www.w3.org/1999/xlink">
  <defs
     id="defs910" />
  <sodipodi:namedview
     id="base"
     pagecolor="#ffffff"
     bordercolor="#666666"
     borderopacity="1.0"
     inkscape:pageopacity="0.0"
     inkscape:pageshadow="2"
     inkscape:zoom="0.96114310"
     inkscape:cx="318.65134"
     inkscape:cy="148.08385"
     inkscape:window-width="1272"
     inkscape:window-height="951"
     inkscape:grid-points="true"
     showgrid="true"
     inkscape:window-x="0"
     inkscape:window-y="0"
     gridtolerance="1.0000000mm"
     gridspacingy="1.0000000mm"
     gridspacingx="1.0000000mm" />
  <metadata
     id="metadata911">
    <rdf:RDF
       id="RDF912">
      <cc:Work
         rdf:about=""
         id="Work913">
        <dc:format
           id="format914">image/svg+xml</dc:format>
        <dc:type
           id="type916"
           rdf:resource="http://purl.org/dc/dcmitype/StillImage" />
      </cc:Work>
    </rdf:RDF>
  </metadata>
  <rect
     style="fill:#ffffff;fill-opacity:1.0000000;fill-rule:evenodd;stroke:none;stroke-width:3.5433071;stroke-linecap:butt;stroke-linejoin:miter;stroke-miterlimit:4.0000000;stroke-opacity:1.0000000;"
     id="rect11628"
     width="871.65356"
     height="648.42517"
     x="-17.716536"
     y="-21.259865"
     rx="0.91961694"
     ry="0.91961694"
     inkscape:export-xdpi="512.02686"
     inkscape:export-ydpi="512.02686" />
  <path
     style="fill:#c80000;fill-opacity:1.0000000;fill-rule:evenodd;stroke:none;stroke-width:1.0000000pt;stroke-linecap:butt;stroke-linejoin:miter;stroke-opacity:1.0000000;"
     d="M 6.8396496,61.501654 C 22.586079,65.608314 40.158429,75.107384 49.606299,97.694024 C 33.859869,97.694024 16.287520,97.694024 6.8396496,97.694024 L 6.8396496,61.501654 z "
     id="path959"
     sodipodi:nodetypes="cccc" />
  <path
     style="fill:#c80000;fill-opacity:1.0000000;fill-rule:evenodd;stroke:none;stroke-width:1.0000000pt;stroke-linecap:butt;stroke-linejoin:miter;stroke-opacity:1.0000000;"
     d="M 6.8396496,58.211434 C 78.117376,72.209554 83.243156,189.29848 88.809076,235.88308 L 106.62853,235.88308 L 106.62853,104.27445 C 95.936848,98.675214 95.936848,83.551984 106.62853,77.952734 L 106.62853,58.211434 L 6.8396496,58.211434 z "
     id="path960"
     sodipodi:nodetypes="ccccccc" />
  <path
     style="fill:#c80000;fill-opacity:1.0000000;fill-rule:evenodd;stroke:none;stroke-width:1.0000000pt;stroke-linecap:butt;stroke-linejoin:miter;stroke-opacity:1.0000000;"
     d="M 217.10908,61.501664 C 201.36264,65.608334 183.79028,75.107394 174.34242,97.694044 C 190.08884,97.694044 207.66122,97.694044 217.10908,97.694044 L 217.10908,61.501664 z "
     id="path961"
     sodipodi:nodetypes="cccc" />
  <path
     style="fill:#c80000;fill-opacity:1.0000000;fill-rule:evenodd;stroke:none;stroke-width:1.0000000pt;stroke-linecap:butt;stroke-linejoin:miter;stroke-opacity:1.0000000;"
     d="M 217.10908,58.211454 C 145.05245,72.209574 139.87068,189.29849 134.24394,235.88309 L 116.22976,235.88309 L 116.22976,104.27447 C 127.03827,98.675224 127.03827,83.551994 116.22976,77.952744 L 116.22976,58.211454 L 217.10908,58.211454 z "
     id="path962"
     sodipodi:nodetypes="ccccccc" />
  <path
     sodipodi:type="arc"
     style="fill:#c80000;fill-opacity:1.0000000;fill-rule:evenodd;stroke:none;stroke-width:3.5433071;stroke-linecap:butt;stroke-linejoin:miter;stroke-miterlimit:4.0000000;stroke-opacity:1.0000000;"
     id="path1626"
     sodipodi:cx="217.91339"
     sodipodi:cy="-21.259848"
     sodipodi:rx="15.944881"
     sodipodi:ry="21.259842"
     d="M 233.85827,-21.259848 A 15.944881,21.259842 0 1 1 233.85718,-21.508166 L 217.91339,-21.259848 z"
     sodipodi:start="0.0000000"
     sodipodi:end="6.2715049"
     transform="matrix(1.200980,0.000000,0.000000,1.034519,-152.1332,51.85866)" />
  <text
     xml:space="preserve"
     style="font-size:72.000000;font-style:normal;font-variant:normal;font-weight:bold;font-stretch:normal;fill:#c80000;fill-opacity:1.0000000;stroke:none;stroke-width:1.0000000pt;stroke-linecap:butt;stroke-linejoin:miter;stroke-opacity:1.0000000;font-family:Sans;text-anchor:start;writing-mode:lr;"
     x="95.365334"
     y="111.12133"
     id="text1652"
     sodipodi:linespacing="100%"
     transform="scale(1.752954,2.054725)"><tspan
       id="tspan1653">Wiki</tspan></text>
  <path
     style="fill:#00c800;fill-opacity:1.0000000;fill-rule:evenodd;stroke:none;stroke-width:1.0000000pt;stroke-linecap:butt;stroke-linejoin:miter;stroke-opacity:1.0000000;"
     d="M 8.5167396,241.20508 C 24.263169,245.31174 41.835519,254.81081 51.283389,277.39745 C 35.536959,277.39745 17.964610,277.39745 8.5167396,277.39745 L 8.5167396,241.20508 z "
     id="path7886"
     sodipodi:nodetypes="cccc" />
  <path
     style="fill:#00c800;fill-opacity:1.0000000;fill-rule:evenodd;stroke:none;stroke-width:1.0000000pt;stroke-linecap:butt;stroke-linejoin:miter;stroke-opacity:1.0000000;"
     d="M 8.5167396,237.91486 C 79.794466,251.91298 84.920246,369.00190 90.486166,415.58650 L 108.30562,415.58650 L 108.30562,283.97787 C 97.613938,278.37864 97.613938,263.25541 108.30562,257.65616 L 108.30562,237.91486 L 8.5167396,237.91486 z "
     id="path7887"
     sodipodi:nodetypes="ccccccc" />
  <path
     style="fill:#00c800;fill-opacity:1.0000000;fill-rule:evenodd;stroke:none;stroke-width:1.0000000pt;stroke-linecap:butt;stroke-linejoin:miter;stroke-opacity:1.0000000;"
     d="M 218.78617,241.20509 C 203.03973,245.31176 185.46737,254.81082 176.01951,277.39747 C 191.76593,277.39747 209.33831,277.39747 218.78617,277.39747 L 218.78617,241.20509 z "
     id="path7888"
     sodipodi:nodetypes="cccc" />
  <path
     style="fill:#00c800;fill-opacity:1.0000000;fill-rule:evenodd;stroke:none;stroke-width:1.0000000pt;stroke-linecap:butt;stroke-linejoin:miter;stroke-opacity:1.0000000;"
     d="M 218.78617,237.91488 C 146.72954,251.91300 141.54777,369.00191 135.92103,415.58651 L 117.90685,415.58651 L 117.90685,283.97789 C 128.71536,278.37865 128.71536,263.25542 117.90685,257.65617 L 117.90685,237.91488 L 218.78617,237.91488 z "
     id="path7889"
     sodipodi:nodetypes="ccccccc" />
  <text
     xml:space="preserve"
     style="font-size:72.000000;font-style:normal;font-variant:normal;font-weight:bold;font-stretch:normal;fill:#00c800;fill-opacity:1.0000000;stroke:none;stroke-width:1.0000000pt;stroke-linecap:butt;stroke-linejoin:miter;stroke-opacity:1.0000000;font-family:Sans;text-anchor:start;writing-mode:lr;"
     x="96.322060"
     y="198.57994"
     id="text7891"
     sodipodi:linespacing="100%"
     transform="scale(1.752954,2.054725)"><tspan
       id="tspan7892">eamwork</tspan></text>
  <path
     style="fill:#0000c8;fill-opacity:1.0000000;fill-rule:evenodd;stroke:none;stroke-width:1.0000000pt;stroke-linecap:butt;stroke-linejoin:miter;stroke-opacity:1.0000000;"
     d="M 8.5167106,421.12906 C 24.263140,425.23572 41.835490,434.73479 51.283360,457.32143 C 35.536930,457.32143 17.964581,457.32143 8.5167106,457.32143 L 8.5167106,421.12906 z "
     id="path7894"
     sodipodi:nodetypes="cccc" />
  <path
     style="fill:#0000c8;fill-opacity:1.0000000;fill-rule:evenodd;stroke:none;stroke-width:1.0000000pt;stroke-linecap:butt;stroke-linejoin:miter;stroke-opacity:1.0000000;"
     d="M 8.5167106,417.83884 C 79.794437,431.83696 84.920217,548.92588 90.486137,595.51048 L 108.30559,595.51048 L 108.30559,463.90185 C 97.613908,458.30262 97.613908,443.17939 108.30559,437.58014 L 108.30559,417.83884 L 8.5167106,417.83884 z "
     id="path7895"
     sodipodi:nodetypes="ccccccc" />
  <path
     style="fill:#0000c8;fill-opacity:1.0000000;fill-rule:evenodd;stroke:none;stroke-width:1.0000000pt;stroke-linecap:butt;stroke-linejoin:miter;stroke-opacity:1.0000000;"
     d="M 218.78614,421.12907 C 203.03970,425.23574 185.46734,434.73480 176.01948,457.32145 C 191.76590,457.32145 209.33828,457.32145 218.78614,457.32145 L 218.78614,421.12907 z "
     id="path7896"
     sodipodi:nodetypes="cccc" />
  <path
     style="fill:#0000c8;fill-opacity:1.0000000;fill-rule:evenodd;stroke:none;stroke-width:1.0000000pt;stroke-linecap:butt;stroke-linejoin:miter;stroke-opacity:1.0000000;"
     d="M 218.78614,417.83886 C 146.72951,431.83698 141.54774,548.92589 135.92100,595.51049 L 117.90682,595.51049 L 117.90682,463.90187 C 128.71533,458.30263 128.71533,443.17940 117.90682,437.58015 L 117.90682,417.83886 L 218.78614,417.83886 z "
     id="path7897"
     sodipodi:nodetypes="ccccccc" />
  <text
     xml:space="preserve"
     style="font-size:72.000000;font-style:normal;font-variant:normal;font-weight:bold;font-stretch:normal;fill:#0000c8;fill-opacity:1.0000000;stroke:none;stroke-width:1.0000000pt;stroke-linecap:butt;stroke-linejoin:miter;stroke-opacity:1.0000000;font-family:Sans;text-anchor:start;writing-mode:lr;"
     x="96.322044"
     y="286.14590"
     id="text7899"
     sodipodi:linespacing="100%"
     transform="scale(1.752954,2.054725)"><tspan
       id="tspan7900">ools</tspan></text>
  <path
     sodipodi:type="arc"
     style="fill:#00c800;fill-opacity:1.0000000;fill-rule:evenodd;stroke:none;stroke-width:3.5433071;stroke-linecap:butt;stroke-linejoin:miter;stroke-miterlimit:4.0000000;stroke-opacity:1.0000000;"
     id="path7890"
     sodipodi:cx="217.91339"
     sodipodi:cy="-21.259848"
     sodipodi:rx="15.944881"
     sodipodi:ry="21.259842"
     d="M 233.85827,-21.259848 A 15.944881,21.259842 0 1 1 233.85718,-21.508166 L 217.91339,-21.259848 z"
     sodipodi:start="0.0000000"
     sodipodi:end="6.2715049"
     transform="matrix(1.200980,0.000000,0.000000,1.034519,-150.4561,231.5621)" />
  <path
     sodipodi:type="arc"
     style="fill:#0000c8;fill-opacity:1.0000000;fill-rule:evenodd;stroke:none;stroke-width:3.5433071;stroke-linecap:butt;stroke-linejoin:miter;stroke-miterlimit:4.0000000;stroke-opacity:1.0000000;"
     id="path7898"
     sodipodi:cx="217.91339"
     sodipodi:cy="-21.259848"
     sodipodi:rx="15.944881"
     sodipodi:ry="21.259842"
     d="M 233.85827,-21.259848 A 15.944881,21.259842 0 1 1 233.85718,-21.508166 L 217.91339,-21.259848 z"
     sodipodi:start="0.0000000"
     sodipodi:end="6.2715049"
     transform="matrix(1.200980,0.000000,0.000000,1.034519,-150.4561,411.4862)" />
</svg>
